<mxfile host="app.diagrams.net" agent="Mozilla/5.0 (Windows NT 10.0; Win64; x64) AppleWebKit/537.36 (KHTML, like Gecko) Chrome/137.0.0.0 Safari/537.36" version="27.1.4">
  <diagram name="Page-1" id="SxDMZEwVNFWx1xjTe0Z2">
    <mxGraphModel dx="1281" dy="619" grid="1" gridSize="10" guides="1" tooltips="1" connect="1" arrows="1" fold="1" page="1" pageScale="1" pageWidth="850" pageHeight="1100" math="0" shadow="0">
      <root>
        <mxCell id="0" />
        <mxCell id="1" parent="0" />
        <mxCell id="_j3oGl3ftbBMxumqYgQG-5" value="&lt;b&gt;Client&lt;/b&gt;" style="html=1;whiteSpace=wrap;" vertex="1" parent="1">
          <mxGeometry x="230" y="60" width="80" height="50" as="geometry" />
        </mxCell>
        <mxCell id="_j3oGl3ftbBMxumqYgQG-55" value="«interface»&lt;div&gt;Iterator&lt;/div&gt;" style="swimlane;fontStyle=0;childLayout=stackLayout;horizontal=1;startSize=50;fillColor=none;horizontalStack=0;resizeParent=1;resizeParentMax=0;resizeLast=0;collapsible=1;marginBottom=0;whiteSpace=wrap;html=1;" vertex="1" parent="1">
          <mxGeometry x="70" y="140" width="140" height="102" as="geometry" />
        </mxCell>
        <mxCell id="_j3oGl3ftbBMxumqYgQG-56" value="+ getNext()" style="text;strokeColor=none;fillColor=none;align=left;verticalAlign=top;spacingLeft=4;spacingRight=4;overflow=hidden;rotatable=0;points=[[0,0.5],[1,0.5]];portConstraint=eastwest;whiteSpace=wrap;html=1;" vertex="1" parent="_j3oGl3ftbBMxumqYgQG-55">
          <mxGeometry y="50" width="140" height="26" as="geometry" />
        </mxCell>
        <mxCell id="_j3oGl3ftbBMxumqYgQG-57" value="+ hasMore(): bool" style="text;strokeColor=none;fillColor=none;align=left;verticalAlign=top;spacingLeft=4;spacingRight=4;overflow=hidden;rotatable=0;points=[[0,0.5],[1,0.5]];portConstraint=eastwest;whiteSpace=wrap;html=1;" vertex="1" parent="_j3oGl3ftbBMxumqYgQG-55">
          <mxGeometry y="76" width="140" height="26" as="geometry" />
        </mxCell>
        <mxCell id="_j3oGl3ftbBMxumqYgQG-59" value="&lt;span style=&quot;font-weight: 400;&quot;&gt;«interface»&lt;/span&gt;&lt;div style=&quot;font-weight: 400;&quot;&gt;IterableCollection&lt;/div&gt;" style="swimlane;fontStyle=1;align=center;verticalAlign=top;childLayout=stackLayout;horizontal=1;startSize=50;horizontalStack=0;resizeParent=1;resizeParentMax=0;resizeLast=0;collapsible=1;marginBottom=0;whiteSpace=wrap;html=1;" vertex="1" parent="1">
          <mxGeometry x="330" y="140" width="160" height="84" as="geometry" />
        </mxCell>
        <mxCell id="_j3oGl3ftbBMxumqYgQG-60" value="+ createIterator(): Iterator" style="text;strokeColor=none;fillColor=none;align=left;verticalAlign=top;spacingLeft=4;spacingRight=4;overflow=hidden;rotatable=0;points=[[0,0.5],[1,0.5]];portConstraint=eastwest;whiteSpace=wrap;html=1;" vertex="1" parent="1">
          <mxGeometry x="330" y="190" width="160" height="34" as="geometry" />
        </mxCell>
        <mxCell id="_j3oGl3ftbBMxumqYgQG-67" value="" style="endArrow=classic;html=1;rounded=0;fontSize=12;startSize=8;endSize=8;entryX=0.5;entryY=0;entryDx=0;entryDy=0;exitX=0;exitY=0.5;exitDx=0;exitDy=0;edgeStyle=orthogonalEdgeStyle;" edge="1" parent="1" source="_j3oGl3ftbBMxumqYgQG-5" target="_j3oGl3ftbBMxumqYgQG-55">
          <mxGeometry width="50" height="50" relative="1" as="geometry">
            <mxPoint x="240" y="360" as="sourcePoint" />
            <mxPoint x="290" y="310" as="targetPoint" />
          </mxGeometry>
        </mxCell>
        <mxCell id="_j3oGl3ftbBMxumqYgQG-70" value="" style="endArrow=classic;html=1;rounded=0;fontSize=12;startSize=8;endSize=8;entryX=0.5;entryY=0;entryDx=0;entryDy=0;exitX=1;exitY=0.5;exitDx=0;exitDy=0;edgeStyle=orthogonalEdgeStyle;" edge="1" parent="1" source="_j3oGl3ftbBMxumqYgQG-5" target="_j3oGl3ftbBMxumqYgQG-59">
          <mxGeometry width="50" height="50" relative="1" as="geometry">
            <mxPoint x="490" y="90" as="sourcePoint" />
            <mxPoint x="400" y="145" as="targetPoint" />
          </mxGeometry>
        </mxCell>
        <mxCell id="_j3oGl3ftbBMxumqYgQG-76" value="" style="endArrow=classic;html=1;rounded=0;fontSize=12;startSize=8;endSize=8;curved=1;entryX=0.506;entryY=1.154;entryDx=0;entryDy=0;entryPerimeter=0;" edge="1" parent="1" target="_j3oGl3ftbBMxumqYgQG-57">
          <mxGeometry width="50" height="50" relative="1" as="geometry">
            <mxPoint x="141" y="246" as="sourcePoint" />
            <mxPoint x="290" y="310" as="targetPoint" />
            <Array as="points" />
          </mxGeometry>
        </mxCell>
        <mxCell id="_j3oGl3ftbBMxumqYgQG-80" value="" style="endArrow=block;dashed=1;endFill=0;endSize=12;html=1;rounded=0;fontSize=12;curved=1;entryX=0.5;entryY=1.031;entryDx=0;entryDy=0;entryPerimeter=0;exitX=0.44;exitY=0.003;exitDx=0;exitDy=0;exitPerimeter=0;" edge="1" parent="1" source="_j3oGl3ftbBMxumqYgQG-82" target="_j3oGl3ftbBMxumqYgQG-57">
          <mxGeometry width="160" relative="1" as="geometry">
            <mxPoint x="140" y="310" as="sourcePoint" />
            <mxPoint x="220" y="320" as="targetPoint" />
          </mxGeometry>
        </mxCell>
        <mxCell id="_j3oGl3ftbBMxumqYgQG-81" value="" style="endArrow=block;dashed=1;endFill=0;endSize=12;html=1;rounded=0;fontSize=12;curved=1;entryX=0.5;entryY=1.031;entryDx=0;entryDy=0;entryPerimeter=0;exitX=0.454;exitY=-0.015;exitDx=0;exitDy=0;exitPerimeter=0;" edge="1" parent="1" source="_j3oGl3ftbBMxumqYgQG-86">
          <mxGeometry width="160" relative="1" as="geometry">
            <mxPoint x="420" y="310" as="sourcePoint" />
            <mxPoint x="420" y="224" as="targetPoint" />
          </mxGeometry>
        </mxCell>
        <mxCell id="_j3oGl3ftbBMxumqYgQG-82" value="&lt;div style=&quot;&quot;&gt;ConcreteIterator&lt;/div&gt;" style="swimlane;fontStyle=1;align=center;verticalAlign=top;childLayout=stackLayout;horizontal=1;startSize=40;horizontalStack=0;resizeParent=1;resizeParentMax=0;resizeLast=0;collapsible=1;marginBottom=0;whiteSpace=wrap;html=1;" vertex="1" parent="1">
          <mxGeometry x="60" y="320" width="180" height="150" as="geometry" />
        </mxCell>
        <mxCell id="_j3oGl3ftbBMxumqYgQG-83" value="- collection: ConcreteCollection" style="text;strokeColor=none;fillColor=none;align=left;verticalAlign=top;spacingLeft=4;spacingRight=4;overflow=hidden;rotatable=0;points=[[0,0.5],[1,0.5]];portConstraint=eastwest;whiteSpace=wrap;html=1;" vertex="1" parent="_j3oGl3ftbBMxumqYgQG-82">
          <mxGeometry y="40" width="180" height="30" as="geometry" />
        </mxCell>
        <mxCell id="_j3oGl3ftbBMxumqYgQG-84" value="" style="line;strokeWidth=1;fillColor=none;align=left;verticalAlign=middle;spacingTop=-1;spacingLeft=3;spacingRight=3;rotatable=0;labelPosition=right;points=[];portConstraint=eastwest;strokeColor=inherit;" vertex="1" parent="_j3oGl3ftbBMxumqYgQG-82">
          <mxGeometry y="70" width="180" height="8" as="geometry" />
        </mxCell>
        <mxCell id="_j3oGl3ftbBMxumqYgQG-85" value="+ ConcreteIterator(c: ConcreteCollection)&lt;div&gt;+ getNext()&lt;/div&gt;&lt;div&gt;+ AtEnd(): bool&lt;/div&gt;" style="text;strokeColor=none;fillColor=none;align=left;verticalAlign=top;spacingLeft=4;spacingRight=4;overflow=hidden;rotatable=0;points=[[0,0.5],[1,0.5]];portConstraint=eastwest;whiteSpace=wrap;html=1;" vertex="1" parent="_j3oGl3ftbBMxumqYgQG-82">
          <mxGeometry y="78" width="180" height="72" as="geometry" />
        </mxCell>
        <mxCell id="_j3oGl3ftbBMxumqYgQG-86" value="ConcreteCollection" style="swimlane;fontStyle=1;align=center;verticalAlign=top;childLayout=stackLayout;horizontal=1;startSize=26;horizontalStack=0;resizeParent=1;resizeParentMax=0;resizeLast=0;collapsible=1;marginBottom=0;whiteSpace=wrap;html=1;" vertex="1" parent="1">
          <mxGeometry x="345" y="350" width="160" height="70" as="geometry" />
        </mxCell>
        <mxCell id="_j3oGl3ftbBMxumqYgQG-89" value="&lt;div&gt;...&lt;/div&gt;+ createIterator(): Iterator" style="text;strokeColor=none;fillColor=none;align=left;verticalAlign=top;spacingLeft=4;spacingRight=4;overflow=hidden;rotatable=0;points=[[0,0.5],[1,0.5]];portConstraint=eastwest;whiteSpace=wrap;html=1;" vertex="1" parent="_j3oGl3ftbBMxumqYgQG-86">
          <mxGeometry y="26" width="160" height="44" as="geometry" />
        </mxCell>
        <mxCell id="_j3oGl3ftbBMxumqYgQG-92" value="" style="endArrow=classic;startArrow=classic;html=1;rounded=0;fontSize=12;startSize=8;endSize=8;curved=1;exitX=0.996;exitY=0.28;exitDx=0;exitDy=0;exitPerimeter=0;" edge="1" parent="1" source="_j3oGl3ftbBMxumqYgQG-83">
          <mxGeometry width="50" height="50" relative="1" as="geometry">
            <mxPoint x="250" y="490" as="sourcePoint" />
            <mxPoint x="342" y="368" as="targetPoint" />
          </mxGeometry>
        </mxCell>
      </root>
    </mxGraphModel>
  </diagram>
</mxfile>
